# xmcd
# Track frame offsets:
# 150
# 11806
# 24226
# 41065
# 55897
# 69037
# 90423
# 101474
# 117867
# 132190
# 143838
# 158984
# 177697
# 200157
# 220712
# 234408
# 248970
# 279586
# 293201
# 314649
#
# Disc length: 4386 seconds
# Revision: 0
# Processed by: cddbd v1.5PL3 Copyright (c) Steve Scherf et al.
# Submitted via: VisiTrax 2.9.9.202 - For more info visit www.synapsa.com
#
DISCID=24112014
DTITLE=Tom Shaka - Blues Roots
DYEAR=1900
DGENRE=Blues
TTITLE0=Soul Full Of Blues
TTITLE1=Countryside
TTITLE2=Travelling Blues
TTITLE3=Little Girl
TTITLE4=Gotta Move
TTITLE5=Fall In Love
TTITLE6=Hello Blues
TTITLE7=Young And Pretty
TTITLE8=Memories
TTITLE9=Sexy Lady
TTITLE10=True Love
TTITLE11=I'm Addicted
TTITLE12=Sweet Kisses
TTITLE13=Hard Working Man
TTITLE14=Iron Horse
TTITLE15=She's Real Pretty
TTITLE16=Mystery
TTITLE17=Victory
TTITLE18=Pussy Cat
TTITLE19=Ain't Right
EXTD=
EXTT0=
EXTT1=
EXTT2=
EXTT3=
EXTT4=
EXTT5=
EXTT6=
EXTT7=
EXTT8=
EXTT9=
EXTT10=
EXTT11=
EXTT12=
EXTT13=
EXTT14=
EXTT15=
EXTT16=
EXTT17=
EXTT18=
EXTT19=
PLAYORDER=
